<svg xmlns="http://www.w3.org/2000/svg" xmlns:xlink="http://www.w3.org/1999/xlink" width="48" zoomAndPan="magnify" viewBox="0 0 36 36.000001" height="48" preserveAspectRatio="xMidYMid meet" version="1.0"><defs><clipPath id="462747bf18"><path d="M 0.488281 0 L 35.511719 0 L 35.511719 35.027344 L 0.488281 35.027344 Z M 0.488281 0 " clip-rule="nonzero"/></clipPath><clipPath id="013c442479"><path d="M 3.511719 8.367188 L 32.699219 8.367188 L 32.699219 28.796875 L 3.511719 28.796875 Z M 3.511719 8.367188 " clip-rule="nonzero"/></clipPath></defs><g clip-path="url(#462747bf18)"><path fill="#ffffff" d="M 0.488281 0 L 35.511719 0 L 35.511719 42.324219 L 0.488281 42.324219 Z M 0.488281 0 " fill-opacity="1" fill-rule="nonzero"/><path fill="#ffffff" d="M 0.488281 0 L 35.511719 0 L 35.511719 35.027344 L 0.488281 35.027344 Z M 0.488281 0 " fill-opacity="1" fill-rule="nonzero"/><path fill="#ffffff" d="M 0.488281 0 L 35.511719 0 L 35.511719 35.027344 L 0.488281 35.027344 Z M 0.488281 0 " fill-opacity="1" fill-rule="nonzero"/></g><g clip-path="url(#013c442479)"><path fill="#eb6a17" d="M 17.0625 27.777344 C 17.0625 28.339844 16.597656 28.796875 16.019531 28.796875 L 4.558594 28.796875 C 3.984375 28.796875 3.519531 28.339844 3.519531 27.777344 L 3.519531 23.691406 C 3.519531 23.125 3.984375 22.667969 4.558594 22.667969 L 6.125 22.667969 C 6.988281 22.667969 7.6875 21.980469 7.6875 21.136719 C 7.6875 20.289062 6.988281 19.601562 6.125 19.601562 L 4.558594 19.601562 C 3.984375 19.601562 3.519531 19.144531 3.519531 18.582031 L 3.519531 14.496094 C 3.519531 13.929688 3.984375 13.472656 4.558594 13.472656 L 7.6875 13.472656 L 7.6875 12.453125 C 7.6875 10.757812 9.089844 9.382812 10.820312 9.386719 C 11.027344 9.386719 11.234375 9.40625 11.4375 9.445312 C 12.921875 9.777344 13.964844 11.082031 13.9375 12.574219 L 13.9375 13.472656 L 17.0625 13.472656 Z M 30.085938 14.496094 L 31.648438 14.496094 C 32.226562 14.496094 32.691406 14.039062 32.691406 13.472656 L 32.691406 9.386719 C 32.691406 8.824219 32.226562 8.367188 31.648438 8.367188 L 20.1875 8.367188 C 19.613281 8.367188 19.148438 8.824219 19.148438 9.386719 L 19.148438 23.691406 L 22.273438 23.691406 L 22.273438 24.589844 C 22.246094 26.082031 23.289062 27.386719 24.773438 27.71875 C 26.46875 28.054688 28.121094 26.976562 28.460938 25.316406 C 28.503906 25.117188 28.523438 24.914062 28.523438 24.710938 L 28.523438 23.691406 L 31.648438 23.691406 C 32.226562 23.691406 32.691406 23.234375 32.691406 22.667969 L 32.691406 18.582031 C 32.691406 18.019531 32.226562 17.558594 31.648438 17.558594 L 30.085938 17.558594 C 29.222656 17.558594 28.523438 16.875 28.523438 16.027344 C 28.523438 15.179688 29.222656 14.496094 30.085938 14.496094 Z M 30.085938 14.496094 " fill-opacity="1" fill-rule="nonzero"/></g></svg>